<?xml version="1.0" encoding="iso-8859-1"?>
<!-- Generator: Adobe Illustrator 19.0.0, SVG Export Plug-In . SVG Version: 6.00 Build 0)  -->
<svg version="1.1" id="Layer_1" xmlns="http://www.w3.org/2000/svg" xmlns:xlink="http://www.w3.org/1999/xlink" x="0px" y="0px"
	 viewBox="0 0 512 512" style="enable-background:new 0 0 512 512;" xml:space="preserve">
<g>
	<rect x="10.649" y="37.688" style="fill:#B3B3B3;" width="61.323" height="157.709"/>
	<rect x="319.313" y="436.927" style="fill:#B3B3B3;" width="157.709" height="61.323"/>
</g>
<path style="fill:#999999;" d="M477.027,155.874v177.415H319.319V220.837c0-13.394-10.863-24.242-24.242-24.242H175.629V38.886
	h184.396C424.633,38.886,477.027,91.266,477.027,155.874z"/>
<path style="fill:#B3B3B3;" d="M363.395,498.245V220.837c0-37.671-30.647-68.319-68.319-68.319H10.664V82.963h349.362
	c40.211,0,72.925,32.708,72.925,72.911v342.369h-69.556V498.245z"/>
<rect x="429.59" y="432.861" style="fill:#CCCCCC;" width="47.432" height="65.388"/>
<rect x="323.28" y="432.861" style="fill:#999999;" width="41.475" height="65.388"/>
<rect x="10.664" y="37.702" style="fill:#CCCCCC;" width="65.388" height="47.432"/>
<rect x="10.664" y="149.96" style="fill:#999999;" width="65.388" height="41.475"/>
<g>
	<path style="fill:#CCCCCC;" d="M477.027,155.874v177.415h-44.077V155.874c0-40.209-32.702-72.911-72.925-72.911H175.629V38.886
		h184.396C424.633,38.886,477.027,91.266,477.027,155.874z"/>
	<polygon style="fill:#CCCCCC;" points="319.32,436.926 307.348,436.926 307.348,399.972 319.32,399.972 477.015,399.972 
		488.986,399.972 488.986,436.926 477.015,436.926 	"/>
	<polygon style="fill:#CCCCCC;" points="108.932,195.4 108.932,207.372 71.978,207.372 71.978,195.4 71.978,37.706 71.978,25.734 
		108.932,25.734 108.932,37.706 	"/>
</g>
<polygon style="fill:#E6E6E6;" points="501.341,333.289 501.341,399.972 295.759,399.972 295.759,333.289 319.319,333.289 
	477.027,333.289 "/>
<polygon style="fill:#CCCCCC;" points="350.627,333.289 350.627,399.972 295.759,399.972 295.759,333.289 302.046,333.289 
	344.138,333.289 "/>
<polygon style="fill:#E6E6E6;" points="175.629,38.886 175.629,196.595 175.629,219.344 108.932,219.344 108.932,207.372 
	108.932,195.4 108.932,37.706 108.932,25.734 108.932,13.763 175.629,13.763 "/>
<polygon style="fill:#CCCCCC;" points="175.629,219.344 108.946,219.344 108.946,164.476 175.629,164.476 175.629,170.765 
	175.629,212.855 "/>
<g>
	<path style="fill:#FFFFFF;" d="M441.482,242.875c-5.891,0-10.664-4.774-10.664-10.664v-76.338
		c0-39.028-31.758-70.778-70.793-70.778c-5.891,0-10.664-4.774-10.664-10.664s4.773-10.664,10.664-10.664
		c50.796,0,92.12,41.318,92.12,92.106v76.338C452.145,238.101,447.371,242.875,441.482,242.875z"/>
	<path style="fill:#FFFFFF;" d="M472.122,382.982c-5.891,0-10.664-4.774-10.664-10.664v-11.375c0-5.889,4.773-10.664,10.664-10.664
		s10.664,4.774,10.664,10.664v11.375C482.786,378.207,478.011,382.982,472.122,382.982z"/>
	<circle style="fill:#FFFFFF;" cx="441.476" cy="266.337" r="10.664"/>
</g>
<path style="fill:#333333;" d="M501.336,322.618h-13.652V155.879c0-70.392-57.267-127.66-127.658-127.66H186.287V13.757
	c0-5.889-4.774-10.664-10.664-10.664h-66.691c-5.889,0-10.664,4.774-10.664,10.664v1.309H71.973
	c-5.889,0-10.664,4.774-10.664,10.664v1.308H10.664C4.774,27.038,0,31.813,0,37.702s4.774,10.664,10.664,10.664h50.645v136.367
	H10.664C4.774,184.733,0,189.507,0,195.396s4.774,10.664,10.664,10.664h50.645v1.308c0,5.889,4.774,10.664,10.664,10.664h26.297
	v1.307c0,5.889,4.774,10.664,10.664,10.664h66.691c5.889,0,10.664-4.774,10.664-10.664v-12.085h108.785
	c7.487,0,13.578,6.091,13.578,13.578v101.787h-12.895c-5.891,0-10.664,4.774-10.664,10.664v66.689
	c0,5.889,4.773,10.664,10.664,10.664h0.93v26.289c0,5.889,4.773,10.664,10.664,10.664h1.301v50.655
	c0,5.889,4.773,10.664,10.664,10.664s10.664-4.774,10.664-10.664v-50.655h136.38v50.655c0,5.889,4.773,10.664,10.664,10.664
	s10.664-4.774,10.664-10.664v-50.655h1.301c5.891,0,10.664-4.774,10.664-10.664v-26.289h1.686c5.891,0,10.664-4.774,10.664-10.664
	v-66.689C512,327.393,507.226,322.618,501.336,322.618z M82.636,196.704V36.394h15.633v1.308h-0.007v157.694h0.007v1.308
	L82.636,196.704L82.636,196.704z M164.96,208.675h-45.363V24.421h45.363v14.463v157.706V208.675z M295.071,185.927H186.287V49.547
	h173.738c58.63,0,106.331,47.701,106.331,106.332v166.739h-136.38V220.831C329.977,201.585,314.318,185.927,295.071,185.927z
	 M306.419,343.945h12.895H477.02h13.652v45.362H306.419V343.945L306.419,343.945z M478.323,426.262H318.012v-15.626h160.311V426.262
	z"/>
<g>
</g>
<g>
</g>
<g>
</g>
<g>
</g>
<g>
</g>
<g>
</g>
<g>
</g>
<g>
</g>
<g>
</g>
<g>
</g>
<g>
</g>
<g>
</g>
<g>
</g>
<g>
</g>
<g>
</g>
</svg>
