<svg height="512pt" viewBox="-61 0 512 512" width="512pt" xmlns="http://www.w3.org/2000/svg"><path d="m69 75h-30v-75h45v30h-15zm0 0" fill="#3b3b3b"/><path d="m169 75h-30v-45h-15v-30h45zm0 0" fill="#3b3b3b"/><path d="m251 75h-30v-75h45v30h-15zm0 0" fill="#282828"/><path d="m351 75h-30v-45h-15v-30h45zm0 0" fill="#282828"/><path d="m390 512h-390v-312l30-20h330l30 20zm0 0" fill="#7ccaff"/><path d="m390 200-30-20h-165v332h195zm0 0" fill="#50b8ff"/><path d="m60 240h270v30h-270zm0 0" fill="#3b3b3b"/><path d="m390 200h-390v-140h390zm0 0" fill="#23a6ff"/><path d="m195 240h135v30h-135zm0 0" fill="#282828"/><path d="m195 60h195v140h-195zm0 0" fill="#006ed8"/><path d="m330 452h-270v-152h270zm0 0" fill="#f3eee9"/><g fill="#fedb41"><path d="m90 135c0 8.285156-6.714844 15-15 15s-15-6.714844-15-15 6.714844-15 15-15 15 6.714844 15 15zm0 0"/><path d="m150 135c0 8.285156-6.714844 15-15 15s-15-6.714844-15-15 6.714844-15 15-15 15 6.714844 15 15zm0 0"/><path d="m210 135c0 8.285156-6.714844 15-15 15s-15-6.714844-15-15 6.714844-15 15-15 15 6.714844 15 15zm0 0"/></g><path d="m330 135c0 8.285156-6.714844 15-15 15s-15-6.714844-15-15 6.714844-15 15-15 15 6.714844 15 15zm0 0" fill="#e61e13"/><path d="m210 135c0-8.285156-6.714844-15-15-15v30c8.285156 0 15-6.714844 15-15zm0 0" fill="#fcbf2a"/><path d="m330 452h-135v-152h135zm0 0" fill="#e9dfda"/></svg>