<svg height="464pt" viewBox="0 0 464 464" width="464pt" xmlns="http://www.w3.org/2000/svg"><path d="m224 416h160c17.671875 0 32 14.328125 32 32v16h-224v-16c0-17.671875 14.328125-32 32-32zm0 0" fill="#93999a"/><path d="m112 256h256v32h-256c-8.835938 0-16-7.164062-16-16s7.164062-16 16-16zm0 0" fill="#4891d3"/><path d="m288 288h176v32c0 53.019531-42.980469 96-96 96h-80zm0 0" fill="#d0d8da"/><path d="m313.28125 394.238281c28.933594-17.304687 46.667969-48.523437 46.71875-82.238281h-72v104h80c-20.351562.015625-39.9375-7.769531-54.71875-21.761719zm0 0" fill="#93999a"/><path d="m384 96h64c8.835938 0 16 7.164062 16 16v176h-96v-176c0-8.835938 7.164062-16 16-16zm0 0" fill="#d0d8da"/><path d="m432 168c0 8.835938-7.164062 16-16 16s-16-7.164062-16-16 7.164062-16 16-16 16 7.164062 16 16zm0 0" fill="#4891d3"/><path d="m136 256h208c0 8.835938-7.164062 16-16 16h-176c-8.835938 0-16-7.164062-16-16zm0 0" fill="#57b7eb"/><path d="m128 288h240c0 53.019531-42.980469 96-96 96h-48c-53.019531 0-96-42.980469-96-96zm0 0" fill="#d0d8da"/><path d="m192.480469 352c-6.324219-7.070312-7.890625-17.199219-4-25.847656 3.894531-8.652344 12.515625-14.195313 22-14.152344h154.398437c2.023438-7.839844 3.070313-15.902344 3.121094-24h-240c0 53.019531 42.980469 96 96 96h40c-27.304688-.007812-53.316406-11.648438-71.519531-32zm0 0" fill="#93999a"/><path d="m416 168c-4.417969 0-8-3.582031-8-8v-24c0-4.417969 3.582031-8 8-8s8 3.582031 8 8v24c0 4.417969-3.582031 8-8 8zm0 0" fill="#57b7eb"/><path d="m256 440h158.878906c-3.636718-14.089844-16.324218-23.953125-30.878906-24h-152c0 13.253906 10.746094 24 24 24zm0 0" fill="#d0d8da"/><path d="m128 136h-104c-13.253906 0-24-10.746094-24-24v-40c0-13.253906 10.746094-24 24-24h32v-24c0-4.417969 3.582031-8 8-8s8 3.582031 8 8v32c0 4.417969-3.582031 8-8 8h-40c-4.417969 0-8 3.582031-8 8v40c0 4.417969 3.582031 8 8 8h104c4.417969 0 8-3.582031 8-8v-16c0-4.417969 3.582031-8 8-8s8 3.582031 8 8v16c0 13.253906-10.746094 24-24 24zm0 0" fill="#d0d8da"/><path d="m32 96h80v64h-80zm0 0" fill="#4891d3"/><path d="m80 16c0 8.835938-7.164062 16-16 16s-16-7.164062-16-16 7.164062-16 16-16 16 7.164062 16 16zm0 0" fill="#57b7eb"/><path d="m112 208-24-16-16 16-16-16-24 16v-48h80zm0 0" fill="#4891d3"/><path d="m32 160h80v16h-80zm0 0" fill="#2d72bc"/><path d="m48 96h64v32h-32c-17.671875 0-32-14.328125-32-32zm0 0" fill="#57b7eb"/><path d="m72 24c-8.835938 0-16-7.164062-16-16 .011719-2.265625.5-4.5 1.441406-6.558594-6.527344 2.898438-10.339844 9.773438-9.347656 16.84375.992188 7.070313 6.550781 12.628906 13.621094 13.621094 7.070312.992188 13.945312-2.820312 16.84375-9.347656-2.058594.941406-4.292969 1.429687-6.558594 1.441406zm0 0" fill="#4891d3"/></svg>