<?xml version="1.0" encoding="iso-8859-1"?>
<!-- Generator: Adobe Illustrator 19.0.0, SVG Export Plug-In . SVG Version: 6.00 Build 0)  -->
<svg version="1.1" id="Layer_1" xmlns="http://www.w3.org/2000/svg" xmlns:xlink="http://www.w3.org/1999/xlink" x="0px" y="0px"
	 viewBox="0 0 511.998 511.998" style="enable-background:new 0 0 511.998 511.998;" xml:space="preserve">
<polygon style="fill:#F4550F;" points="183.381,47.267 174.076,56.584 174.064,56.572 139.168,91.467 139.181,91.479 53.87,176.778 
	39.14,162.037 83.34,71.301 145.372,9.27 "/>
<g>
	<polygon style="fill:#E6E6E6;" points="350.111,213.997 318.651,245.445 293.06,219.854 324.52,188.406 	"/>
	<path style="fill:#E6E6E6;" d="M404.951,268.837c8.687,8.687,8.687,22.774,0,31.46c-4.337,4.337-10.034,6.5-15.73,6.5
		c-5.684,0-11.368-2.162-15.718-6.5l-54.852-54.852l31.46-31.448L404.951,268.837z"/>
	
		<rect x="156.374" y="63.915" transform="matrix(-0.7071 0.7071 -0.7071 -0.7071 378.6857 40.0515)" style="fill:#E6E6E6;" width="49.349" height="69.079"/>
</g>
<path style="fill:#F4550F;" d="M461.001,433.454c7.921,7.933,11.875,18.313,11.875,28.692c0,10.392-3.954,20.784-11.875,28.705
	c-15.841,15.841-41.544,15.841-57.385,0L216.324,303.559c-7.352-7.352-12.579-16.558-15.149-26.641l-12.357-48.71
	c-2.632-10.38-14.136-15.718-23.774-11.035l-47.586,23.194l-14.729-14.742l85.299-85.299l34.896-34.896l9.305-9.305l37.997,37.997
	l54.296,54.283l-31.46,31.448l-22.835,22.835L461.001,433.454z M443.17,472.229c6.413-6.426,6.413-16.83,0-23.255
	c-6.426-6.426-16.842-6.426-23.268,0c-6.426,6.426-6.426,16.83,0,23.255C426.328,478.655,436.745,478.655,443.17,472.229z"/>
<g>
	<path style="fill:#333333;" d="M467.554,426.907L283.336,242.69l9.727-9.727l73.881,73.881h0.001
		c6.143,6.143,14.21,9.213,22.278,9.213c8.069,0,16.138-3.071,22.279-9.213c12.283-12.285,12.283-32.273,0-44.557L238.785,89.569
		c-3.621-3.619-9.488-3.619-13.107,0l-2.752,2.752l-35.749-35.748l2.753-2.753c1.737-1.737,2.714-4.095,2.714-6.553
		c0-2.458-0.976-4.815-2.714-6.553l-38-38c-3.621-3.619-9.488-3.619-13.107,0l-62.04,62.039c-0.727,0.727-1.327,1.571-1.777,2.494
		l-44.203,90.732c-1.731,3.555-1.017,7.817,1.777,10.612l14.734,14.734c1.739,1.737,4.095,2.715,6.554,2.715
		s4.814-0.976,6.554-2.715l78.75-78.75l35.749,35.748l-78.751,78.752c-3.619,3.619-3.619,9.486,0,13.106l14.734,14.734
		c2.798,2.796,7.058,3.511,10.613,1.778l47.59-23.184c2.837-1.383,5.322-0.631,6.55-0.062c1.228,0.57,3.407,1.983,4.183,5.043
		l12.358,48.703c2.967,11.694,9.044,22.386,17.576,30.918l187.287,187.287c9.415,9.415,21.932,14.6,35.245,14.6
		c13.314,0,25.832-5.185,35.247-14.6C486.989,477.964,486.989,446.342,467.554,426.907z M324.515,201.512L337,213.996
		l-18.345,18.345l-12.485-12.484L324.515,201.512z M398.397,293.739c-5.056,5.058-13.287,5.058-18.346,0h0.001l-48.29-48.29
		l18.345-18.345l48.29,48.29C403.454,280.452,403.454,288.68,398.397,293.739z M53.868,163.667l-3.509-3.509l40.63-83.396
		l54.387-54.387l24.894,24.893L53.868,163.667z M152.279,91.47l21.791-21.791l35.749,35.748l-21.791,21.791L152.279,91.47z
		 M454.447,484.293c-5.913,5.914-13.775,9.171-22.14,9.171c-8.363,0-16.226-3.257-22.138-9.171L222.882,297.006
		c-6.173-6.173-10.571-13.909-12.718-22.371l-12.358-48.703c-1.944-7.665-7.173-13.969-14.345-17.298
		c-3.511-1.629-7.263-2.442-11.015-2.442c-3.915,0-7.827,0.886-11.456,2.654l-41.649,20.29l-3.509-3.509l116.4-116.4l79.177,79.176
		l-47.731,47.732c-3.619,3.619-3.619,9.486,0,13.106l190.768,190.772C466.656,452.221,466.656,472.085,454.447,484.293z"/>
	<path style="fill:#333333;" d="M431.533,434.885c-6.87,0-13.328,2.675-18.186,7.533c-4.859,4.857-7.534,11.316-7.534,18.186
		c0,6.87,2.675,13.328,7.533,18.186c4.859,4.857,11.316,7.533,18.187,7.533c6.87,0,13.327-2.675,18.184-7.533c0,0,0,0,0.001-0.001
		c4.857-4.857,7.533-11.315,7.533-18.186c0-6.87-2.675-13.328-7.533-18.185C444.861,437.56,438.403,434.885,431.533,434.885z
		 M436.611,465.681C436.61,465.681,436.61,465.681,436.611,465.681c-1.358,1.357-3.161,2.104-5.079,2.104
		c-1.918,0-3.723-0.748-5.08-2.104c-1.357-1.357-2.103-3.161-2.103-5.079c0-1.918,0.746-3.722,2.103-5.079
		c1.358-1.357,3.162-2.104,5.08-2.104s3.722,0.746,5.079,2.104c1.357,1.357,2.103,3.161,2.103,5.079
		C438.716,462.521,437.968,464.325,436.611,465.681z"/>
</g>
<g>
</g>
<g>
</g>
<g>
</g>
<g>
</g>
<g>
</g>
<g>
</g>
<g>
</g>
<g>
</g>
<g>
</g>
<g>
</g>
<g>
</g>
<g>
</g>
<g>
</g>
<g>
</g>
<g>
</g>
</svg>
